<mxfile host="app.diagrams.net" modified="2023-09-12T20:00:09.678Z" agent="Mozilla/5.0 (Windows NT 10.0; Win64; x64) AppleWebKit/537.36 (KHTML, like Gecko) Chrome/115.0.0.0 Safari/537.36 OPR/101.0.0.0" etag="Dm07s1kKG64UoRfpkuMT" version="21.7.4" type="github">
  <diagram name="Page-1" id="0783ab3e-0a74-02c8-0abd-f7b4e66b4bec">
    <mxGraphModel dx="987" dy="571" grid="1" gridSize="10" guides="1" tooltips="1" connect="1" arrows="1" fold="1" page="1" pageScale="1" pageWidth="850" pageHeight="1100" background="none" math="0" shadow="0">
      <root>
        <mxCell id="0" />
        <mxCell id="1" parent="0" />
        <mxCell id="NRbihuP3iSQzDfQlJbNI-1" value="Formar Palavra" style="swimlane;childLayout=stackLayout;resizeParent=1;resizeParentMax=0;startSize=20;html=1;" vertex="1" parent="1">
          <mxGeometry x="160" y="40" width="710" height="530" as="geometry" />
        </mxCell>
        <mxCell id="NRbihuP3iSQzDfQlJbNI-2" value="Jogador" style="swimlane;startSize=20;html=1;" vertex="1" parent="NRbihuP3iSQzDfQlJbNI-1">
          <mxGeometry y="20" width="280" height="510" as="geometry" />
        </mxCell>
        <mxCell id="NRbihuP3iSQzDfQlJbNI-5" style="edgeStyle=orthogonalEdgeStyle;rounded=0;orthogonalLoop=1;jettySize=auto;html=1;entryX=0.5;entryY=0;entryDx=0;entryDy=0;" edge="1" parent="NRbihuP3iSQzDfQlJbNI-2" source="60571a20871a0731-4" target="1c1d494c118603dd-6">
          <mxGeometry relative="1" as="geometry" />
        </mxCell>
        <mxCell id="60571a20871a0731-4" value="" style="ellipse;whiteSpace=wrap;html=1;rounded=0;shadow=0;comic=0;labelBackgroundColor=none;strokeWidth=1;fillColor=#000000;fontFamily=Verdana;fontSize=12;align=center;" parent="NRbihuP3iSQzDfQlJbNI-2" vertex="1">
          <mxGeometry x="120" y="40" width="40" height="40" as="geometry" />
        </mxCell>
        <mxCell id="1c1d494c118603dd-6" value="Iniciar Jogo" style="rounded=1;whiteSpace=wrap;html=1;shadow=0;comic=0;labelBackgroundColor=none;strokeWidth=1;fontFamily=Verdana;fontSize=12;align=center;arcSize=50;" parent="NRbihuP3iSQzDfQlJbNI-2" vertex="1">
          <mxGeometry x="75" y="100" width="130" height="30" as="geometry" />
        </mxCell>
        <mxCell id="NRbihuP3iSQzDfQlJbNI-12" value="Escolher Letra" style="rounded=1;whiteSpace=wrap;html=1;shadow=0;comic=0;labelBackgroundColor=none;strokeWidth=1;fontFamily=Verdana;fontSize=12;align=center;arcSize=50;" vertex="1" parent="NRbihuP3iSQzDfQlJbNI-2">
          <mxGeometry x="65" y="160" width="150" height="30" as="geometry" />
        </mxCell>
        <mxCell id="NRbihuP3iSQzDfQlJbNI-11" style="edgeStyle=orthogonalEdgeStyle;rounded=0;orthogonalLoop=1;jettySize=auto;html=1;entryX=0;entryY=0.5;entryDx=0;entryDy=0;" edge="1" parent="NRbihuP3iSQzDfQlJbNI-1" source="1c1d494c118603dd-6" target="NRbihuP3iSQzDfQlJbNI-10">
          <mxGeometry relative="1" as="geometry" />
        </mxCell>
        <mxCell id="NRbihuP3iSQzDfQlJbNI-13" style="rounded=0;orthogonalLoop=1;jettySize=auto;html=1;exitX=0.067;exitY=1;exitDx=0;exitDy=0;entryX=0.94;entryY=0.133;entryDx=0;entryDy=0;exitPerimeter=0;entryPerimeter=0;" edge="1" parent="NRbihuP3iSQzDfQlJbNI-1" source="NRbihuP3iSQzDfQlJbNI-10" target="NRbihuP3iSQzDfQlJbNI-12">
          <mxGeometry relative="1" as="geometry" />
        </mxCell>
        <mxCell id="NRbihuP3iSQzDfQlJbNI-15" style="edgeStyle=orthogonalEdgeStyle;rounded=0;orthogonalLoop=1;jettySize=auto;html=1;entryX=0;entryY=0.5;entryDx=0;entryDy=0;" edge="1" parent="NRbihuP3iSQzDfQlJbNI-1" source="NRbihuP3iSQzDfQlJbNI-12" target="NRbihuP3iSQzDfQlJbNI-14">
          <mxGeometry relative="1" as="geometry" />
        </mxCell>
        <mxCell id="NRbihuP3iSQzDfQlJbNI-19" style="edgeStyle=orthogonalEdgeStyle;rounded=0;orthogonalLoop=1;jettySize=auto;html=1;entryX=0.5;entryY=1;entryDx=0;entryDy=0;" edge="1" parent="NRbihuP3iSQzDfQlJbNI-1" source="NRbihuP3iSQzDfQlJbNI-16" target="NRbihuP3iSQzDfQlJbNI-12">
          <mxGeometry relative="1" as="geometry" />
        </mxCell>
        <mxCell id="NRbihuP3iSQzDfQlJbNI-3" value="PC" style="swimlane;startSize=20;html=1;" vertex="1" parent="NRbihuP3iSQzDfQlJbNI-1">
          <mxGeometry x="280" y="20" width="430" height="510" as="geometry" />
        </mxCell>
        <mxCell id="NRbihuP3iSQzDfQlJbNI-10" value="Gerar Palavra" style="rounded=1;whiteSpace=wrap;html=1;shadow=0;comic=0;labelBackgroundColor=none;strokeWidth=1;fontFamily=Verdana;fontSize=12;align=center;arcSize=50;" vertex="1" parent="NRbihuP3iSQzDfQlJbNI-3">
          <mxGeometry x="150" y="100" width="150" height="30" as="geometry" />
        </mxCell>
        <mxCell id="NRbihuP3iSQzDfQlJbNI-17" style="edgeStyle=orthogonalEdgeStyle;rounded=0;orthogonalLoop=1;jettySize=auto;html=1;entryX=0.5;entryY=0;entryDx=0;entryDy=0;" edge="1" parent="NRbihuP3iSQzDfQlJbNI-3" source="NRbihuP3iSQzDfQlJbNI-14" target="NRbihuP3iSQzDfQlJbNI-16">
          <mxGeometry relative="1" as="geometry" />
        </mxCell>
        <mxCell id="NRbihuP3iSQzDfQlJbNI-14" value="Verificar Letra" style="rounded=1;whiteSpace=wrap;html=1;shadow=0;comic=0;labelBackgroundColor=none;strokeWidth=1;fontFamily=Verdana;fontSize=12;align=center;arcSize=50;" vertex="1" parent="NRbihuP3iSQzDfQlJbNI-3">
          <mxGeometry x="150" y="160" width="150" height="30" as="geometry" />
        </mxCell>
        <mxCell id="NRbihuP3iSQzDfQlJbNI-21" style="edgeStyle=orthogonalEdgeStyle;rounded=0;orthogonalLoop=1;jettySize=auto;html=1;exitX=0.5;exitY=1;exitDx=0;exitDy=0;entryX=0.5;entryY=0;entryDx=0;entryDy=0;" edge="1" parent="NRbihuP3iSQzDfQlJbNI-3" source="NRbihuP3iSQzDfQlJbNI-16" target="NRbihuP3iSQzDfQlJbNI-20">
          <mxGeometry relative="1" as="geometry" />
        </mxCell>
        <mxCell id="NRbihuP3iSQzDfQlJbNI-16" value="" style="rhombus;whiteSpace=wrap;html=1;" vertex="1" parent="NRbihuP3iSQzDfQlJbNI-3">
          <mxGeometry x="200" y="220" width="50" height="40" as="geometry" />
        </mxCell>
        <mxCell id="NRbihuP3iSQzDfQlJbNI-30" style="edgeStyle=orthogonalEdgeStyle;rounded=0;orthogonalLoop=1;jettySize=auto;html=1;entryX=0.5;entryY=0;entryDx=0;entryDy=0;" edge="1" parent="NRbihuP3iSQzDfQlJbNI-3" source="NRbihuP3iSQzDfQlJbNI-20" target="NRbihuP3iSQzDfQlJbNI-29">
          <mxGeometry relative="1" as="geometry" />
        </mxCell>
        <mxCell id="NRbihuP3iSQzDfQlJbNI-20" value="Verificar Letra" style="rounded=1;whiteSpace=wrap;html=1;shadow=0;comic=0;labelBackgroundColor=none;strokeWidth=1;fontFamily=Verdana;fontSize=12;align=center;arcSize=50;" vertex="1" parent="NRbihuP3iSQzDfQlJbNI-3">
          <mxGeometry x="150" y="300" width="150" height="30" as="geometry" />
        </mxCell>
        <mxCell id="NRbihuP3iSQzDfQlJbNI-32" style="edgeStyle=orthogonalEdgeStyle;rounded=0;orthogonalLoop=1;jettySize=auto;html=1;exitX=1;exitY=0.5;exitDx=0;exitDy=0;entryX=0.5;entryY=0;entryDx=0;entryDy=0;" edge="1" parent="NRbihuP3iSQzDfQlJbNI-3" source="NRbihuP3iSQzDfQlJbNI-29" target="NRbihuP3iSQzDfQlJbNI-31">
          <mxGeometry relative="1" as="geometry" />
        </mxCell>
        <mxCell id="NRbihuP3iSQzDfQlJbNI-45" style="edgeStyle=orthogonalEdgeStyle;rounded=0;orthogonalLoop=1;jettySize=auto;html=1;exitX=0;exitY=0.5;exitDx=0;exitDy=0;entryX=0.5;entryY=0;entryDx=0;entryDy=0;" edge="1" parent="NRbihuP3iSQzDfQlJbNI-3" source="NRbihuP3iSQzDfQlJbNI-29" target="NRbihuP3iSQzDfQlJbNI-44">
          <mxGeometry relative="1" as="geometry" />
        </mxCell>
        <mxCell id="NRbihuP3iSQzDfQlJbNI-29" value="" style="rhombus;whiteSpace=wrap;html=1;" vertex="1" parent="NRbihuP3iSQzDfQlJbNI-3">
          <mxGeometry x="200" y="360" width="50" height="40" as="geometry" />
        </mxCell>
        <mxCell id="NRbihuP3iSQzDfQlJbNI-48" style="edgeStyle=orthogonalEdgeStyle;rounded=0;orthogonalLoop=1;jettySize=auto;html=1;exitX=0.5;exitY=1;exitDx=0;exitDy=0;entryX=0.5;entryY=0;entryDx=0;entryDy=0;" edge="1" parent="NRbihuP3iSQzDfQlJbNI-3" source="NRbihuP3iSQzDfQlJbNI-31" target="60571a20871a0731-5">
          <mxGeometry relative="1" as="geometry" />
        </mxCell>
        <mxCell id="NRbihuP3iSQzDfQlJbNI-31" value="Adicionar Boneco" style="rounded=1;whiteSpace=wrap;html=1;shadow=0;comic=0;labelBackgroundColor=none;strokeWidth=1;fontFamily=Verdana;fontSize=12;align=center;arcSize=50;" vertex="1" parent="NRbihuP3iSQzDfQlJbNI-3">
          <mxGeometry x="260" y="400" width="150" height="30" as="geometry" />
        </mxCell>
        <mxCell id="NRbihuP3iSQzDfQlJbNI-47" style="edgeStyle=orthogonalEdgeStyle;rounded=0;orthogonalLoop=1;jettySize=auto;html=1;exitX=0.5;exitY=1;exitDx=0;exitDy=0;entryX=0.5;entryY=0;entryDx=0;entryDy=0;" edge="1" parent="NRbihuP3iSQzDfQlJbNI-3" source="NRbihuP3iSQzDfQlJbNI-44" target="NRbihuP3iSQzDfQlJbNI-46">
          <mxGeometry relative="1" as="geometry" />
        </mxCell>
        <mxCell id="NRbihuP3iSQzDfQlJbNI-44" value="Formar Palavra" style="rounded=1;whiteSpace=wrap;html=1;shadow=0;comic=0;labelBackgroundColor=none;strokeWidth=1;fontFamily=Verdana;fontSize=12;align=center;arcSize=50;" vertex="1" parent="NRbihuP3iSQzDfQlJbNI-3">
          <mxGeometry x="40" y="400" width="150" height="30" as="geometry" />
        </mxCell>
        <mxCell id="60571a20871a0731-5" value="" style="shape=mxgraph.bpmn.shape;html=1;verticalLabelPosition=bottom;labelBackgroundColor=#ffffff;verticalAlign=top;perimeter=ellipsePerimeter;outline=end;symbol=terminate;rounded=0;shadow=0;comic=0;strokeWidth=1;fontFamily=Verdana;fontSize=12;align=center;" parent="NRbihuP3iSQzDfQlJbNI-3" vertex="1">
          <mxGeometry x="315" y="460" width="40" height="40" as="geometry" />
        </mxCell>
        <mxCell id="NRbihuP3iSQzDfQlJbNI-46" value="" style="shape=mxgraph.bpmn.shape;html=1;verticalLabelPosition=bottom;labelBackgroundColor=#ffffff;verticalAlign=top;perimeter=ellipsePerimeter;outline=end;symbol=terminate;rounded=0;shadow=0;comic=0;strokeWidth=1;fontFamily=Verdana;fontSize=12;align=center;" vertex="1" parent="NRbihuP3iSQzDfQlJbNI-3">
          <mxGeometry x="95" y="460" width="40" height="40" as="geometry" />
        </mxCell>
        <mxCell id="NRbihuP3iSQzDfQlJbNI-49" value="[se a letra já foi usada]" style="text;html=1;strokeColor=none;fillColor=none;align=center;verticalAlign=middle;whiteSpace=wrap;rounded=0;" vertex="1" parent="NRbihuP3iSQzDfQlJbNI-3">
          <mxGeometry x="40" y="210" width="130" height="30" as="geometry" />
        </mxCell>
        <mxCell id="NRbihuP3iSQzDfQlJbNI-50" value="[se a letra for diferente]" style="text;html=1;strokeColor=none;fillColor=none;align=center;verticalAlign=middle;whiteSpace=wrap;rounded=0;" vertex="1" parent="NRbihuP3iSQzDfQlJbNI-3">
          <mxGeometry x="230" y="260" width="130" height="30" as="geometry" />
        </mxCell>
        <mxCell id="NRbihuP3iSQzDfQlJbNI-51" value="[se a letra se estiver correto]" style="text;html=1;strokeColor=none;fillColor=none;align=center;verticalAlign=middle;whiteSpace=wrap;rounded=0;" vertex="1" parent="NRbihuP3iSQzDfQlJbNI-3">
          <mxGeometry x="30" y="350" width="160" height="30" as="geometry" />
        </mxCell>
        <mxCell id="NRbihuP3iSQzDfQlJbNI-52" value="[se a letra se estiver errada]" style="text;html=1;strokeColor=none;fillColor=none;align=center;verticalAlign=middle;whiteSpace=wrap;rounded=0;" vertex="1" parent="NRbihuP3iSQzDfQlJbNI-3">
          <mxGeometry x="250" y="350" width="160" height="30" as="geometry" />
        </mxCell>
      </root>
    </mxGraphModel>
  </diagram>
</mxfile>
